<?xml version="1.0" encoding="UTF-8" standalone="no"?>
<svg
   xmlns:dc="http://purl.org/dc/elements/1.1/"
   xmlns:cc="http://creativecommons.org/ns#"
   xmlns:rdf="http://www.w3.org/1999/02/22-rdf-syntax-ns#"
   xmlns:svg="http://www.w3.org/2000/svg"
   xmlns="http://www.w3.org/2000/svg"
   viewBox="0 0 816 516.66669"
   height="516.66669"
   width="816"
   xml:space="preserve"
   id="svg2"
   version="1.1"><metadata
     id="metadata8"><rdf:RDF><cc:Work
         rdf:about=""><dc:format>image/svg+xml</dc:format><dc:type
           rdf:resource="http://purl.org/dc/dcmitype/StillImage" /></cc:Work></rdf:RDF></metadata><defs
     id="defs6" /><g
     transform="matrix(1.3333333,0,0,-1.3333333,0,516.66667)"
     id="g10"><g
       transform="scale(0.1)"
       id="g12"><path
         id="path14"
         style="fill:#ef6419;fill-opacity:1;fill-rule:nonzero;stroke:none"
         d="m 1980.09,2145.79 c 0,195.42 -59.77,324.17 -298.88,324.17 H 1426.02 V 1393.99 h 255.19 c 239.11,0 298.88,128.75 298.88,324.17 z M 1704.2,1097.41 h -436.81 c -87.38,0 -156.35,71.28 -156.35,158.64 v 1358.74 c 0,87.37 68.97,158.64 156.35,158.64 h 436.81 c 510.39,0 590.85,-370.14 590.85,-623.04 v -432.23 c 0,-255.18 -80.46,-620.75 -590.85,-620.75" /><path
         id="path16"
         style="fill:none;stroke:#e7651a;stroke-width:10;stroke-linecap:butt;stroke-linejoin:miter;stroke-miterlimit:10;stroke-dasharray:none;stroke-opacity:1"
         d="m 1980.09,2145.79 c 0,195.42 -59.77,324.17 -298.88,324.17 H 1426.02 V 1393.99 h 255.19 c 239.11,0 298.88,128.75 298.88,324.17 z M 1704.2,1097.41 h -436.81 c -87.38,0 -156.35,71.28 -156.35,158.64 v 1358.74 c 0,87.37 68.97,158.64 156.35,158.64 h 436.81 c 510.39,0 590.85,-370.14 590.85,-623.04 v -432.23 c 0,-255.18 -80.46,-620.75 -590.85,-620.75 z" /><path
         id="path18"
         style="fill:#ef6419;fill-opacity:1;fill-rule:nonzero;stroke:none"
         d="m 3334.32,1097.42 h -751.8 c -91.95,0 -151.73,62.08 -151.73,151.74 0,252.9 112.65,406.93 259.8,535.68 211.5,183.92 478.19,291.98 478.19,508.09 0,105.75 -59.78,213.81 -216.1,213.81 -91.97,0 -154.05,-22.99 -204.63,-52.88 -66.67,-36.79 -98.86,-75.86 -158.63,-75.86 -78.17,0 -149.43,64.37 -149.43,149.43 0,41.38 11.48,82.77 55.18,117.25 124.15,98.86 282.77,149.44 469,149.44 379.35,0 521.88,-273.59 521.88,-501.19 0,-482.81 -581.66,-556.38 -710.41,-894.33 h 558.68 c 85.06,0 151.73,-66.67 151.73,-149.44 0,-85.07 -66.67,-151.74 -151.73,-151.74" /><path
         id="path20"
         style="fill:none;stroke:#e7651a;stroke-width:10;stroke-linecap:butt;stroke-linejoin:miter;stroke-miterlimit:10;stroke-dasharray:none;stroke-opacity:1"
         d="m 3334.32,1097.42 h -751.8 c -91.95,0 -151.73,62.08 -151.73,151.74 0,252.9 112.65,406.93 259.8,535.68 211.5,183.92 478.19,291.98 478.19,508.09 0,105.75 -59.78,213.81 -216.1,213.81 -91.97,0 -154.05,-22.99 -204.63,-52.88 -66.67,-36.79 -98.86,-75.86 -158.63,-75.86 -78.17,0 -149.43,64.37 -149.43,149.43 0,41.38 11.48,82.77 55.18,117.25 124.15,98.86 282.77,149.44 469,149.44 379.35,0 521.88,-273.59 521.88,-501.19 0,-482.81 -581.66,-556.38 -710.41,-894.33 h 558.68 c 85.06,0 151.73,-66.67 151.73,-149.44 0,-85.07 -66.67,-151.74 -151.73,-151.74 z" /><path
         id="path22"
         style="fill:#ef6419;fill-opacity:1;fill-rule:nonzero;stroke:none"
         d="m 4557.49,1097.42 h -738 c -82.76,0 -149.43,66.67 -149.43,151.74 v 1386.33 c 0,87.36 68.97,158.63 156.33,158.63 89.66,0 158.64,-71.27 158.64,-158.63 V 1398.6 h 572.46 c 82.76,0 151.74,-66.67 151.74,-149.44 0,-85.07 -68.98,-151.74 -151.74,-151.74" /><path
         id="path24"
         style="fill:none;stroke:#e7651a;stroke-width:10;stroke-linecap:butt;stroke-linejoin:miter;stroke-miterlimit:10;stroke-dasharray:none;stroke-opacity:1"
         d="m 4557.49,1097.42 h -738 c -82.76,0 -149.43,66.67 -149.43,151.74 v 1386.33 c 0,87.36 68.97,158.63 156.33,158.63 89.66,0 158.64,-71.27 158.64,-158.63 V 1398.6 h 572.46 c 82.76,0 151.74,-66.67 151.74,-149.44 0,-85.07 -68.98,-151.74 -151.74,-151.74 z" /><path
         id="path26"
         style="fill:#ef6419;fill-opacity:1;fill-rule:nonzero;stroke:none"
         d="m 4800.01,2705.46 h -70.43 v 23.69 h 169.06 v -23.69 h -70.5 v -187.67 h -28.13 v 187.67" /><path
         id="path28"
         style="fill:none;stroke:#e7651a;stroke-width:10;stroke-linecap:butt;stroke-linejoin:miter;stroke-miterlimit:10;stroke-dasharray:none;stroke-opacity:1"
         d="m 4800.01,2705.46 h -70.43 v 23.69 h 169.06 v -23.69 h -70.5 v -187.67 h -28.13 z" /><path
         id="path30"
         style="fill:#ef6419;fill-opacity:1;fill-rule:nonzero;stroke:none"
         d="m 4922.65,2729.15 h 38.53 l 66.59,-177.63 66.9,177.63 h 38.46 v -211.36 h -26.61 v 175.81 h -0.57 l -66.03,-175.81 h -23.99 l -66.03,175.81 h -0.57 v -175.81 h -26.68 v 211.36" /><path
         id="path32"
         style="fill:none;stroke:#e7651a;stroke-width:10;stroke-linecap:butt;stroke-linejoin:miter;stroke-miterlimit:10;stroke-dasharray:none;stroke-opacity:1"
         d="m 4922.65,2729.15 h 38.53 l 66.59,-177.63 66.9,177.63 h 38.46 v -211.36 h -26.61 v 175.81 h -0.57 l -66.03,-175.81 h -23.99 l -66.03,175.81 h -0.57 v -175.81 h -26.68 z" /></g></g></svg>